<svg width="236" height="90" viewBox="0 0 236 90" fill="none" xmlns="http://www.w3.org/2000/svg">
<path d="M96.7 71H61.075V65.075H67V28.175H61.075V22.25H81.55V28.175H73.825V65.075H90.775L92.275 54.425L98.2 54.95L96.7 71ZM106.589 29.6V21.875H113.414V29.6H106.589ZM119.039 71H101.564V65.9H107.039V42.65H101.339V37.475H113.639V65.9H119.039V71ZM158.499 53.45C158.499 58 157.299 62.2 154.899 66.05C152.499 69.85 148.674 71.75 143.424 71.75C137.974 71.75 134.149 69.7 131.949 65.6C131.899 66 131.774 66.9 131.574 68.3C131.424 69.7 131.324 70.6 131.274 71H124.674C124.924 69.45 125.174 67.825 125.424 66.125C125.674 64.425 125.799 62.75 125.799 61.1V24.575H120.399V19.4H132.399V44.225C133.399 42.225 134.799 40.5 136.599 39.05C138.449 37.55 140.974 36.8 144.174 36.8C148.324 36.8 151.749 38.25 154.449 41.15C157.149 44.05 158.499 48.15 158.499 53.45ZM151.599 53.975C151.599 50.125 150.699 47.2 148.899 45.2C147.149 43.2 144.949 42.2 142.299 42.2C139.249 42.2 136.849 43.325 135.099 45.575C133.349 47.825 132.449 50.175 132.399 52.625V56.375C132.399 59.175 133.299 61.55 135.099 63.5C136.899 65.4 139.174 66.35 141.924 66.35C145.174 66.35 147.599 65.15 149.199 62.75C150.799 60.35 151.599 57.425 151.599 53.975ZM194.204 61.1C193.854 64 192.429 66.5 189.929 68.6C187.429 70.7 184.029 71.75 179.729 71.75C174.879 71.75 170.954 70.3 167.954 67.4C164.954 64.5 163.454 60.3 163.454 54.8C163.454 49.6 164.854 45.3 167.654 41.9C170.454 38.5 174.329 36.8 179.279 36.8C183.879 36.8 187.454 38.225 190.004 41.075C192.554 43.925 193.854 47.375 193.904 51.425C193.904 52.775 193.754 54.2 193.454 55.7H170.354C170.654 62.8 173.929 66.35 180.179 66.35C182.779 66.35 184.729 65.725 186.029 64.475C187.379 63.225 188.279 61.725 188.729 59.975L194.204 61.1ZM187.079 51.275C187.279 49.075 186.729 46.975 185.429 44.975C184.179 42.925 182.079 41.9 179.129 41.9C176.379 41.9 174.304 42.825 172.904 44.675C171.554 46.475 170.729 48.675 170.429 51.275H187.079ZM218.476 36.95C220.826 36.95 222.826 37.55 224.476 38.75L225.826 48.125L220.651 48.725L219.376 42.95C218.526 42.6 217.651 42.425 216.751 42.425C215.051 42.425 213.626 43.15 212.476 44.6C211.326 46 210.751 47.85 210.751 50.15V65.9H217.951V71H198.751V65.9H204.151V42.65H198.526V37.475H210.301V43.625C210.951 41.725 211.951 40.15 213.301 38.9C214.701 37.6 216.426 36.95 218.476 36.95Z" fill="#E8932E"/>
<path d="M9.5 64.3125C9.5 62.7378 10.1256 61.2276 11.2391 60.1141C12.3526 59.0006 13.8628 58.375 15.4375 58.375H47.5" stroke="#E8932E" stroke-width="3" stroke-linecap="round" stroke-linejoin="round"/>
<path d="M15.4375 22.75H47.5V70.25H15.4375C13.8628 70.25 12.3526 69.6244 11.2391 68.5109C10.1256 67.3974 9.5 65.8872 9.5 64.3125V28.6875C9.5 27.1128 10.1256 25.6026 11.2391 24.4891C12.3526 23.3756 13.8628 22.75 15.4375 22.75V22.75Z" stroke="#E8932E" stroke-width="3" stroke-linecap="round" stroke-linejoin="round"/>
</svg>
