<svg width="132" height="132" viewBox="0 0 132 132" fill="none" xmlns="http://www.w3.org/2000/svg">
<path d="M21.1271 15.7257L50.5633 12.603L53.6868 42.1182" stroke="#E8932E" stroke-width="4" stroke-linecap="round" stroke-linejoin="round"/>
<path d="M76.4002 22.3478C85.7653 24.5879 94.1516 29.8189 100.295 37.2526C106.439 44.6862 110.007 53.9198 110.462 63.562C110.917 73.2041 108.234 82.7323 102.818 90.7108C97.4016 98.6894 89.5452 104.686 80.4326 107.797C71.32 110.908 61.445 110.965 52.2955 107.959C43.146 104.953 35.2178 99.0473 29.7056 91.1316C24.1935 83.216 21.3959 73.7193 21.7346 64.0726C22.0733 54.4259 25.5298 45.1519 31.5833 37.648L50.5634 12.6029" stroke="#E8932E" stroke-width="4" stroke-linecap="round" stroke-linejoin="round"/>
<g clip-path="url(#clip0)">
<path d="M16.8015 75.3423L30.3565 74.5587C32.7532 74.4201 35.1065 75.2418 36.8988 76.8431C38.6911 78.4443 39.7755 80.6939 39.9135 83.097L41.7344 114.81C41.6309 113.007 40.8176 111.32 39.4734 110.119C38.1292 108.918 36.3642 108.302 34.5667 108.406L18.7526 109.32L16.8015 75.3423Z" fill="#FFF9D7" stroke="#E8932E" stroke-width="4" stroke-linecap="round" stroke-linejoin="round"/>
<path d="M61.9848 72.7302L48.4298 73.5138C46.0332 73.6524 43.7895 74.7399 42.1923 76.5371C40.5952 78.3343 39.7755 80.6939 39.9135 83.097L41.7344 114.81C41.6309 113.007 42.2457 111.237 43.4436 109.89C44.6414 108.542 46.3242 107.726 48.1217 107.622L63.9359 106.708L61.9848 72.7302Z" fill="#FFF9D7" stroke="#E8932E" stroke-width="4" stroke-linecap="round" stroke-linejoin="round"/>
</g>
<defs>
<clipPath id="clip0">
<rect width="54.3105" height="54.4539" fill="white" transform="matrix(0.998333 -0.0577142 0.0573264 0.998355 11.893 68.808)"/>
</clipPath>
</defs>
</svg>
